<?xml version="1.0" encoding="UTF-8" standalone="no"?>
<!-- Generator: Adobe Illustrator 16.0.0, SVG Export Plug-In . SVG Version: 6.00 Build 0)  -->

<svg
   xmlns:dc="http://purl.org/dc/elements/1.1/"
   xmlns:cc="http://creativecommons.org/ns#"
   xmlns:rdf="http://www.w3.org/1999/02/22-rdf-syntax-ns#"
   xmlns:svg="http://www.w3.org/2000/svg"
   xmlns="http://www.w3.org/2000/svg"
   xmlns:sodipodi="http://sodipodi.sourceforge.net/DTD/sodipodi-0.dtd"
   xmlns:inkscape="http://www.inkscape.org/namespaces/inkscape"
   version="1.1"
   id="Capa_1"
   x="0px"
   y="0px"
   width="1000"
   height="616.66223"
   viewBox="0 0 1000 616.66223"
   enable-background="new 0 0 151 96"
   xml:space="preserve"
   sodipodi:docname="8771E782-C210-412D-8824-D7CA12CA0FDF.svg"
   inkscape:version="0.92.4 (5da689c313, 2019-01-14)"><metadata
   id="metadata15"><rdf:RDF><cc:Work
       rdf:about=""><dc:format>image/svg+xml</dc:format><dc:type
         rdf:resource="http://purl.org/dc/dcmitype/StillImage" /><dc:title>8771E782-C210-412D-8824-D7CA12CA0FDF</dc:title></cc:Work></rdf:RDF></metadata><defs
   id="defs13" /><sodipodi:namedview
   pagecolor="#ffffff"
   bordercolor="#111111"
   borderopacity="1"
   objecttolerance="10"
   gridtolerance="10"
   guidetolerance="10"
   inkscape:pageopacity="0"
   inkscape:pageshadow="2"
   inkscape:window-width="1920"
   inkscape:window-height="1017"
   id="namedview11"
   showgrid="false"
   fit-margin-top="0"
   fit-margin-left="0"
   fit-margin-right="0"
   fit-margin-bottom="0"
   inkscape:zoom="0.77500776"
   inkscape:cx="455.21096"
   inkscape:cy="151.23789"
   inkscape:window-x="1912"
   inkscape:window-y="-8"
   inkscape:window-maximized="1"
   inkscape:current-layer="Capa_1" />
<title
   id="title2">8771E782-C210-412D-8824-D7CA12CA0FDF</title>
<g
   id="Logo"
   style="fill:#000000"
   transform="matrix(6.6225166,0,0,6.6225166,0,-10.801325)">
	<g
   id="Main-logo"
   transform="translate(-307,-250)"
   style="fill:#000000">
		<g
   transform="translate(307,250)"
   id="g6"
   style="fill:#000000">
			<g
   id="logo_ploom"
   transform="translate(0,0.5)"
   style="fill:#000000">
				<path
   id="Combined-Shape"
   d="m 49.387,1.131 c 9.022,0 16.336,7.357 16.336,16.432 v 0 L 65.72,38.245 c 1.294,2.113 2.042,4.601 2.042,7.265 0,7.659 -6.173,13.869 -13.788,13.869 -7.615,0 -13.788,-6.21 -13.788,-13.869 0,-7.66 6.173,-13.869 13.788,-13.869 3.983,0 7.57,1.699 10.087,4.415 v 0 -10e-4 L 64.065,17.563 C 64.063,9.41 57.492,2.8 49.387,2.8 41.281,2.8 34.71,9.41 34.71,17.564 v 0 0.08 c 1.246,1.058 2.038,2.64 2.038,4.409 v 0 V 58.1 H 34.71 v 19.715 c 0,9.074 -7.313,16.432 -16.335,16.432 -9.022,0 -16.336,-7.357 -16.336,-16.432 v 0 -1.817 C 0.792,74.939 0,73.355 0,71.588 v 0 -36.829 h 5.078 c 2.375,-1.949 5.406,-3.118 8.709,-3.118 7.615,0 13.788,6.209 13.788,13.869 0,7.659 -6.173,13.869 -13.788,13.869 -3.006,0 -5.787,-0.969 -8.053,-2.611 v 0 20.588 c -0.718,0 -1.405,-0.134 -2.038,-0.376 v 0 0.834 c 0,8.153 6.571,14.764 14.677,14.764 8.106,0 14.677,-6.61 14.677,-14.764 v 0 V 58.1 H 31.011 V 16.284 c 0.728,0 1.422,0.137 2.062,0.386 0.464,-8.66 7.59,-15.539 16.314,-15.539 z m 35.174,31.29 c 7.505,0 13.59,6.076 13.59,13.571 0,7.495 -6.085,13.571 -13.59,13.571 -7.506,0 -13.59,-6.076 -13.59,-13.571 -0.001,-7.495 6.084,-13.571 13.59,-13.571 z m 52.536,0 c 7.679,0 13.903,6.016 13.903,13.438 v 0 12.197 h -5.783 V 45.858 c 0,-4.335 -3.635,-7.849 -8.12,-7.849 -4.484,0 -8.12,3.514 -8.12,7.848 v 0 12.198 h -5.783 V 45.858 c 0,-4.335 -3.635,-7.849 -8.119,-7.849 -4.485,0 -8.121,3.514 -8.121,7.849 v 0 12.197 h -5.783 V 45.858 c 0,-7.422 6.225,-13.438 13.904,-13.438 4.482,0 8.469,2.051 11.011,5.234 2.542,-3.182 6.528,-5.233 11.011,-5.233 z m -52.536,5.645 c -4.384,0 -7.938,3.548 -7.938,7.926 0,4.377 3.554,7.926 7.938,7.926 4.383,0 7.937,-3.549 7.937,-7.926 -0.001,-4.378 -3.555,-7.926 -7.937,-7.926 z M 13.788,37.41 c -4.447,0 -8.053,3.627 -8.053,8.101 0,4.474 3.605,8.101 8.053,8.101 4.448,0 8.053,-3.627 8.053,-8.101 0,-4.474 -3.606,-8.101 -8.053,-8.101 z m 40.185,0 c -4.447,0 -8.052,3.627 -8.052,8.101 0,4.474 3.605,8.101 8.052,8.101 4.448,0 8.053,-3.627 8.053,-8.101 0,-4.474 -3.606,-8.101 -8.053,-8.101 z"
   style="fill:#000000"
   inkscape:connector-curvature="0" />
			</g>
		</g>
	</g>
</g>
</svg>